<?xml version="1.0" encoding="UTF-8"?>
<!-- Generator: Adobe Illustrator 22.1.0, SVG Export Plug-In . SVG Version: 6.00 Build 0)  -->
<svg xmlns="http://www.w3.org/2000/svg" xmlns:xlink="http://www.w3.org/1999/xlink" version="1.1" id="Layer_1" x="0px" y="0px" viewBox="0 0 250 250" style="enable-background:new 0 0 250 250;" xml:space="preserve">
<style type="text/css">
	.st0{fill:#484A54;}
	.st1{fill:#F47E20;}
	.st2{fill:#F6E32B;}
	.st3{fill:#387BBE;}
	.st4{fill:#F7D919;}
	.st5{fill:#F8CF14;}
	.st6{fill:#F5B51B;}
	.st7{fill:#FFFFFF;}
	.st8{fill:#FEFEFE;}
	.st9{fill:#9E242E;}
	.st10{fill:#FF912E;}
	.st11{fill:#F41CB2;}
	.st12{fill:#F25511;}
	.st13{fill:#1B9DD7;}
	.st14{fill:#97C43E;}
</style>
<g>
	<g>
		<path class="st0" d="M61.5,114.9c1.9-3.8,4.9-5.7,9.1-5.8c4.2,0,7,2.3,8.7,6.2c1.2-2.3,2.6-4.1,4.7-5.1c6.3-3,14.4,0.4,14.4,8.7    c0,8.7,0,17.4,0,26.1c0,1.8-0.3,2.2-2.1,2.2c-1.8,0-3.6,0-5.3,0c-1.6,0-2-0.4-2-2c0-7.2,0-14.4,0-21.6c0-0.7,0-1.4-0.1-2    c-0.4-2.3-1.3-3.2-3-3.4c-2.3-0.3-3.9,0.6-4.8,2.5c-0.5,1-0.6,2.1-0.6,3.2c0,6.5,0,13,0,19.6c0,0.5,0,1.1,0,1.6    c-0.1,1.9-0.4,2.2-2.3,2.2c-1.7,0-3.5,0-5.2,0c-1.7,0-2.1-0.5-2.1-2.1c0-6.2,0-12.4,0-18.6c0-1.9,0.1-3.8-0.4-5.7    c-0.5-1.8-1.5-2.7-3.4-2.8c-1.8-0.1-3.3,0.7-4,2.3c-0.8,1.8-0.8,3.6-0.8,5.5c0,6.4,0,12.8,0,19.2c0,2-0.3,2.3-2.3,2.3    c-1.8,0-3.6,0-5.3,0c-1.2,0-1.8-0.5-1.8-1.8c0-11.2,0-22.4,0-33.7c0-1.6,0.4-1.9,2-1.9c1.7,0,3.4,0,5.1,0c1.6,0,1.9,0.4,1.9,2    C61.5,112.9,61.5,113.9,61.5,114.9z"></path>
		<path class="st0" d="M134,127.6c0,2.2,0,4.5,0,6.7c-0.1,2.1,0.6,3.9,1.8,5.6c1.5,2,1.5,2.2-0.5,3.9c-1.1,1-2.3,2-3.4,3    c-1.3,1.2-2,1.2-3.3,0c-0.9-0.8-1.7-1.8-2.3-2.8c-0.5-0.8-0.8-0.8-1.4-0.1c-3.8,3.9-8.4,4.9-13.6,3.7c-4.1-1-6.6-4.2-7-8.5    c-0.7-7.2,2.9-12.2,10-13.9c2.6-0.6,5.3-1,8-1.2c2-0.1,2-0.2,2-2.1c0-3.2-1.2-5-3.5-5.4c-3.1-0.5-5.3,0.8-6.4,3.8    c-0.4,1.1-1.1,1.5-2.2,1.4c-1.7-0.2-3.4-0.4-5-0.6c-1.6-0.2-2.1-0.8-1.7-2.4c0.9-3.5,2.9-6.2,6.2-7.8c5.3-2.5,10.8-2.7,16.3-0.5    c4.4,1.8,5.9,5.4,6,9.9C134,122.7,134,125.1,134,127.6C134,127.6,134,127.6,134,127.6z M124.3,131.8c0-2.6-0.1-2.8-2.4-2.4    c-1.3,0.2-2.6,0.4-3.8,0.9c-2.8,1.2-4.3,3.9-3.6,7c0.7,3.3,3.7,4.6,6.5,2.7c0.7-0.5,1.3-1.1,1.8-1.8    C124.1,136.1,124.1,133.7,124.3,131.8z"></path>
		<path class="st0" d="M44.8,127.2c0,2.1,0.1,4.3,0,6.4c-0.1,2.5,0.6,4.7,2.1,6.6c1.2,1.5,1.1,1.9-0.3,3.2c-1.4,1.2-2.8,2.4-4.1,3.6    c-1,0.8-1.9,0.8-2.8-0.1c-0.9-0.9-1.8-1.7-2.4-2.8c-0.5-0.8-0.9-0.9-1.7-0.2c-1.9,1.7-3.9,3.2-6.5,3.6c-3.8,0.7-7.5,0.6-10.8-2    c-4.5-3.5-5.1-14,2-18.4c3.7-2.3,7.8-2.7,11.9-3.1c2.9-0.3,2.9-0.2,2.8-3.1c-0.1-2.5-1.2-3.9-3.3-4.4c-2.6-0.6-5.1,0.5-6.1,2.6    c-0.2,0.4-0.4,0.9-0.5,1.4c-0.3,0.9-0.9,1.2-1.8,1.1c-1.8-0.2-3.6-0.4-5.4-0.6c-1.5-0.2-1.9-0.8-1.6-2.3c0.9-3.9,3.3-6.7,6.9-8.2    c4.9-2,9.8-2.2,14.8-0.4c4.3,1.6,6.5,4.7,6.7,9.2C44.8,121.9,44.8,124.5,44.8,127.2C44.8,127.2,44.8,127.2,44.8,127.2z     M35.1,131.5c0-2.4,0-2.4-2.9-2c-0.3,0-0.5,0-0.8,0.1c-4.6,0.7-7.3,4.5-5.8,8.6c0.5,1.5,1.9,2.6,3.5,2.7c1.8,0,3.2-0.7,4.2-2.1    C34.7,136.7,35.1,134.4,35.1,131.5z"></path>
		<path class="st0" d="M215.8,115.9c0.7-1.2,1.1-2.1,1.7-2.9c2.4-3.4,5.9-4.2,9.8-3.5c3.5,0.7,5.8,2.8,6.8,6.2    c0.5,1.8,0.7,3.6,0.8,5.4c0.1,8.2,0,16.3,0.1,24.5c0,1.3-0.6,1.8-1.8,1.8c-2,0-3.9,0-5.9,0c-1.5,0-1.9-0.6-1.9-2    c0.1-4.6,0.1-9.2,0-13.8c-0.1-2.9,0.3-5.8,0-8.7c-0.3-2.9-1.4-4.5-3.5-4.7c-2.2-0.3-3.9,1-4.8,3.6c-0.5,1.5-0.7,3-0.7,4.6    c0,6.2,0,12.4,0,18.6c0,2.2-0.3,2.5-2.4,2.5c-1.6,0-3.3,0-4.9,0c-1.8,0-2.1-0.3-2.2-2c0-4.4,0-8.8,0-13.2c0-4.1,0-8.3-0.1-12.4    c-0.1-2.7,0.3-5.5,0.1-8.2c-0.1-1,0.6-1.5,1.6-1.5c2,0,3.9,0,5.9,0c1,0,1.5,0.6,1.5,1.6C215.8,112.9,215.8,114.2,215.8,115.9z"></path>
		<path class="st0" d="M170.8,127.6c0.2-3.7,0.9-8,3.4-11.8c6.1-9.4,20-8.7,25,1.3c3.9,7.9,4,15.9-0.3,23.7    c-2.8,5.1-7.5,7.5-13.3,7.3c-5.6-0.2-9.6-3-12.2-7.9C171.5,136.4,170.9,132.4,170.8,127.6z M191.7,128.8c0-3.2,0-6.5-1.2-9.6    c-0.7-1.7-1.9-2.6-3.8-2.7c-1.9-0.1-3.3,0.6-4.1,2.3c-0.4,0.9-0.8,1.7-1,2.7c-0.6,3.2-0.6,6.3-0.4,9.5c0.1,2.2,0.3,4.5,1.2,6.6    c1,2.4,2.8,3.4,5.1,2.9c1.8-0.4,2.7-1.8,3.3-3.4C191.7,134.5,191.6,131.7,191.7,128.8z"></path>
		<path class="st0" d="M103.6,175.2c-12.5-0.2-24.6-2.8-36-8.1c-7.4-3.5-14.2-7.9-20.3-13.3c-0.7-0.6-1.7-1.2-1-2.2    c0.8-1.1,1.7-0.2,2.4,0.2c8.3,4.7,17,8.2,26.1,10.7c6.7,1.8,13.4,3,20.3,3.6c4.4,0.4,8.8,0.6,13.2,0.5c8.4-0.3,16.8-1.4,25-3.5    c5.5-1.4,10.8-3.2,16.1-5.4c1.1-0.4,2.1-0.5,2.8,0.6c0.7,1.2-0.1,2-1,2.6c-6.3,4.5-13.3,7.7-20.7,10c-7.2,2.2-14.5,3.6-22,4    C106.8,175.1,105.2,175.2,103.6,175.2z"></path>
		<path class="st0" d="M154.9,117.5c-3.6,0-6.9,0-10.2,0c-2.4,0-2.6-0.2-2.6-2.6c0-1.1,0-2.3,0-3.4c0-1.1,0.6-1.6,1.6-1.7    c0.4,0,0.7-0.1,1.1-0.1c6.7,0,13.3,0,20,0c2,0,2.3,0.4,2.5,2.4c0.3,2.8-0.6,5.2-2.3,7.5c-3.4,4.6-6.6,9.4-9.9,14.1    c-0.2,0.3-0.6,0.6-0.5,0.9c0.2,0.5,0.7,0.3,1.1,0.3c3.7,0.3,7.2,0.8,10.5,2.6c1.2,0.6,1.7,1.5,1.7,2.7c0,1.5,0,3,0,4.5    c0,1.5-0.9,2-2.3,1.4c-7.5-3.5-15-3.5-22.6,0c-1.3,0.6-2.2,0.1-2.3-1.4c-0.1-1.8,0-3.6,0-5.3c0-1.2,0.5-2.3,1.2-3.3    c4.1-5.8,8.1-11.7,12.2-17.5C154.3,118.3,154.5,118.1,154.9,117.5z"></path>
		<path class="st0" d="M150,153.6c-2.4-0.2-4.8,0.3-7.3,0.5c-0.6,0.1-1.4,0.2-1.7-0.5c-0.3-0.8,0.5-1.2,1-1.5    c5.9-3.5,12.3-4,18.9-2.4c1,0.2,1.8,0.8,1.8,1.9c0,6.8-2.1,12.8-7,17.7c-0.5,0.5-1.2,1.4-2.1,0.8c-0.8-0.6-0.1-1.4,0.2-2.1    c1.3-3.4,2.6-6.7,3.2-10.3c0.5-2.8-0.4-4-3.4-4.1C152.5,153.6,151.3,153.6,150,153.6z"></path>
	</g>
</g>
</svg>
