<?xml version="1.0" encoding="UTF-8"?>
<!-- Generator: Adobe Illustrator 22.1.0, SVG Export Plug-In . SVG Version: 6.00 Build 0)  -->
<svg xmlns="http://www.w3.org/2000/svg" xmlns:xlink="http://www.w3.org/1999/xlink" version="1.1" id="Layer_1" x="0px" y="0px" viewBox="0 0 250 250" style="enable-background:new 0 0 250 250;" xml:space="preserve">
<style type="text/css">
	.st0{fill:#484A54;}
	.st1{fill:#F47E20;}
	.st2{fill:#F6E32B;}
	.st3{fill:#387BBE;}
	.st4{fill:#F7D919;}
	.st5{fill:#F8CF14;}
	.st6{fill:#F5B51B;}
	.st7{fill:#FFFFFF;}
	.st8{fill:#FEFEFE;}
	.st9{fill:#9E242E;}
	.st10{fill:#FF912E;}
	.st11{fill:#F41CB2;}
	.st12{fill:#F25511;}
	.st13{fill:#1B9DD7;}
	.st14{fill:#97C43E;}
</style>
<g>
	<g>
		<path class="st0" d="M183.6,122.4c0-5.3,0-10.5-0.1-15.8c0-1.1,0.4-1.5,1.5-1.4c0.5,0,1,0,1.5,0c20.4,0,40.8,0,61.3-0.1    c1.9,0,2.3,0.5,2.3,2.3c-0.1,5.1-0.1,10.3-0.1,15.4c-2,0.2-3.9-0.2-5.8-0.4c-0.8-1.9-2.3-2.5-4.3-2.6c-4.6-0.2-8.8,1.1-12.7,3.4    c-0.2-1-1.7-0.6-1.7-1.7c1.1-1.2,3-1.8,2.8-3.9l0,0.1c0.1-0.1,0.3-0.3,0.4-0.4l-0.1,0c0.1,0,0.2,0,0.3,0c-0.1-0.1-0.1-0.2-0.2-0.3    c1.8-2.3,3.1-4.8,3.2-7.7c0.1-0.9-0.1-2-1.2-2c-1.1,0-1.1,1-1.1,1.9c-0.1,4-2.1,6.9-5.5,8.6c-4.2,2.1-8.7,2.3-13.1,0.6    c-4.2-1.7-7.3-4.5-7.4-9.5c0-0.7-0.2-1.5-1.1-1.5c-1,0-0.9,0.8-1,1.5c-0.2,3.1,1.4,5.4,3,7.7c0.1,0.1,0.3,0.3,0.4,0.4l0,0    c0.1,0.1,0.3,0.3,0.4,0.4l0,0c0.1,2.2,2.1,2.9,3.3,4.2c-0.3,1.3-1.3,0.8-2,0.8C199,122.4,191.3,122.4,183.6,122.4z"></path>
		<path class="st0" d="M227.1,123.3c-4.4,3.6-6.5,8.4-7.5,13.8c0,0.3-0.1,0.5-0.1,0.8c-0.1,2.1-1,2.9-3.2,2.8    c-6.1-0.4-12.2,0.2-18.2,1c-0.9,0.3-1.7,0.4-2.6,0.4c-3.9,0-7.9,0-11.8,0c0-6.5,0-13.1,0-19.6c7.7,0,15.4,0,23.1,0    c0.7,0,1.8,0.5,2-0.8c5.6,4,11.1,3.9,16.7,0C225.4,122.7,226.9,122.3,227.1,123.3z"></path>
		<path class="st0" d="M58.4,125.5c1.5-1.4,2.9-2.5,4.4-3.3c5.7-2.8,10.8-0.3,11.8,5.9c0.8,4.4-0.1,8.6-2.4,12.4    c-2.9,4.8-7.5,6.2-12.9,6.1c-3.4-0.1-3.4-0.1-3.9,3.3c-0.1,0.7-0.2,1.4-0.3,2.1c-0.7,3.8-0.7,3.8-4.5,3.7c-2.6,0-3.1-0.6-2.7-3.1    c0.7-4.5,1.4-9,2.1-13.6c0.8-4.7,1.5-9.4,2.3-14.2c0.5-3.2,0.7-3.4,3.8-3.2C58,121.8,58.2,122,58.4,125.5z M60.4,140.9    c2.5,0.1,4.5-0.8,5.8-3c1.4-2.4,1.8-4.9,1.4-7.6c-0.5-3.1-2.4-3.9-5-2.1c-3.9,2.7-5.1,6.7-5.4,11.1c-0.1,0.8,0.3,1.1,1,1.3    C58.8,140.7,59.6,140.8,60.4,140.9z"></path>
		<path class="st0" d="M183.6,142c3.9,0,7.9,0,11.8,0c0.9,0,1.8-0.1,2.6-0.4c2.5,1,5.2,0.9,7.7,1.4c0.7,0.2,1.7,0,1.7,1.1    c0,1.1-1,0.6-1.6,0.7c-0.5,0.1-1.1-0.1-1.5,0.7c1,0.2,1.9,0.4,2.9,0.5c0.6,0.1,1,0.3,0.9,0.9c-0.1,0.6-0.6,0.4-1,0.4    c-3.7,0.2-7.5,0.5-11.2,0.7c-0.4,0-0.8,0.1-1.1,0.3c6.7,0.6,13.4,0.7,20,0.7c2.7,0,2.7,0,2.1,2.7c-0.5,2.6-0.9,5.3-1.4,8    c-9.4,0-18.8,0-28.1,0c-2.3,0-3.8-1.4-3.8-3.8C183.5,151.5,183.6,146.7,183.6,142z"></path>
		<path class="st0" d="M79.9,146.1c-3.5,0-3.8-0.2-3.2-3.6c1.4-9.1,2.9-18.2,4.3-27.3c0.4-2.4,4.7-3.8,6.6-2.2    c0.7,0.6,0.7,1.4,0.5,2.3c-0.7,4.5-1.5,9-2.2,13.6c-0.1,0.8-0.7,1.9,0,2.3c0.9,0.5,2-0.1,2.8-0.8c1.9-1.7,3.1-3.9,4.2-6.2    c1-2.2,4.6-3.4,6.7-2.3c1.2,0.6,1,1.7,0.6,2.7c-1.3,3.2-3.1,6-5.5,8.5c-0.9,0.9-1,1.6-0.6,2.7c1.1,2.5,2,5,2.9,7.6    c0.7,1.8,0.1,2.8-1.8,2.7c-5.4,0-4.4,0.8-6.3-4c-0.5-1.4-1.1-2.7-1.6-4.1c-0.3-1-1-1.2-1.9-1.1c-1,0-1,0.8-1.1,1.5    c-0.3,1.5-0.5,3-0.7,4.5C83.2,146,83.1,146.1,79.9,146.1z"></path>
		<path class="st0" d="M117.3,142.3c-1.7,1.4-3.1,2.6-4.8,3.4c-5.4,2.5-10.1,0.2-11.4-5.6c-2.3-10.5,4.6-19,15.2-18.9    c2.6,0,5.3,0.4,7.9,0.8c1.7,0.3,2.2,1.2,1.9,2.8c-1,6.3-2,12.6-3,18.9c-0.4,2.4-0.9,2.6-3.9,2.4c-2-0.1-1.9-1.5-1.8-2.8    C117.4,143.1,117.4,142.9,117.3,142.3z M107.9,135.9c0.2,1.5,0,3.6,2.1,4.5c2,0.8,3.3-0.9,4.6-2.1c2.7-2.4,3.4-5.7,3.8-9.1    c0.2-1.6-0.3-1.9-1.6-2.1C111.4,126.3,107.9,129.6,107.9,135.9z"></path>
		<path class="st0" d="M15.3,112.6c2.6,0,5.3,0,7.9,0c2.1,0,2.7,0.7,2.4,2.6c-0.4,3.5-0.6,3.6-4.1,3.6c-2.8,0-5.7,0-8.5,0    c-1.1,0-1.8,0.2-1.9,1.5c-0.1,1.7-0.4,3.4-0.8,5.1c-0.2,1.3,0.1,1.8,1.5,1.7c2.4-0.1,4.7,0,7.1,0c1.3,0,2.3,0.3,2.3,1.9    c0,2.6-0.6,3.9-2.3,3.9c-2.7,0.1-5.4,0.1-8.1,0c-1.3,0-1.8,0.5-2,1.8c-0.4,3-0.9,6-1.4,9.1c-0.2,1.6-1,2.2-2.6,2.3    c-5.2,0.1-5.2,0.1-4.4-5c1.4-8.6,2.8-17.3,4.1-25.9c0.3-2,1.2-2.7,3.1-2.7C10.2,112.6,12.7,112.6,15.3,112.6z"></path>
		<path class="st0" d="M188.4,96.6c1.2-2.2,3.4-2.3,5.4-2.4c3.9-0.2,7.9-0.1,11.9-0.1c11.2,0,22.3,0,33.5,0c2,0,3.6,0.9,5.4,1.5    c0.4,0.1,0.6,0.6,0.4,1c-1.2,0.2-2.6,0-3,1.7c-0.8,2-0.2,4.1-0.4,6.2c-2.8,0.1-5.6,0.2-8.4,0c0.3-2-2.2-1.6-2.7-3    c0.3-0.2,0.6-0.4,0.8-0.7c0.9-0.8,1-1.7,0.4-2.6c-0.3-0.5-0.9-0.9-1.6-0.6c-1,0.4-1.6,0.9-1.3,2.2c0.4,1.5-0.7,1-1.3,0.8    c-7.1-2.5-14.2-2.7-21.3-0.2c-0.9,0.3-1.8,0.7-1.7-0.9c0.1-0.9-0.4-1.6-1.3-1.9c-0.8-0.2-1.4,0.2-1.7,0.8    c-0.4,0.8-0.5,1.6,0.3,2.2c1.2,0.9,0.5,1.3-0.3,1.8c-0.9,0.5-2.1,0.7-1.9,2.1c-2.6,0.2-5.3,0.2-7.9,0c-0.2-1.9,0.5-3.9-0.4-5.8    C191.3,96.6,189.6,96.9,188.4,96.6z"></path>
		<path class="st0" d="M227.6,159.9c0.5-3,1.1-6,1.6-9c0.2-1.2,0.6-1.9,2-1.7c0.7,0.1,1.4,0,2.1,0c3.8,0,6.3-3.7,5-7.3    c-0.3-0.9-1-1.3-1.9-1.3c-1.2,0-2.4-0.1-3.5,0c-1.8,0.1-1.9-0.6-1.2-2c1.1,0.3,2.3,0.4,3.5,0.4c4.9,0,9.9,0,14.8,0    c0,5.6,0.1,11.2,0.1,16.8c0,2.5-1.6,4-4.1,4C239.8,159.9,233.7,159.9,227.6,159.9z"></path>
		<path class="st0" d="M154,146.6c-4.8,0-7.1-2.7-6.4-7.4c0.5-3.3,1-6.6,1.5-9.9c0.2-1,0.3-1.9-1.2-2.3c-1.5-0.5-0.9-2-0.8-3.1    c0.1-1.1,0.4-2.2,1.8-2.2c1.5,0.1,1.9-0.7,2.2-1.9c0.1-0.5,0.3-1.1,0.5-1.6c0.7-2.5,3.1-3.5,5.5-2.5c0.7,0.3,1.1,0.9,1,1.6    c0,0.7-0.1,1.4-0.3,2.1c-0.5,1.8,0.1,2.4,1.9,2.2c1.2-0.1,2.4,0.3,2.2,1.7c-0.2,1.4,0.2,3.4-2.1,3.8c-3.3,0.5-3.3,0.5-3.8,3.7    c-0.4,2.3-0.8,4.5-1.1,6.8c-0.2,1.5,0.2,2.7,2,2.7c1.2,0,2.3,0.2,2.2,1.6c-0.1,1.4,0.4,3.2-1.5,4    C156.5,146.4,155.2,146.6,154,146.6z"></path>
		<path class="st0" d="M31.2,146.6c-4.3,0-6.5-2.3-6-6.3c1.2-8.6,2.6-17.1,3.9-25.7c0.2-1.4,0.9-2.1,2.3-2.1c0.2,0,0.4,0,0.6,0    c4.4-0.1,4.5,0.1,3.8,4.5c-1.1,6.8-2.1,13.7-3.2,20.5c-0.2,1.5-0.2,2.8,1.6,3.3c1.1,0.3,1.1,1.3,1,2.2c-0.1,1.2-0.1,2.4-1.5,2.9    C32.9,146.4,32,146.7,31.2,146.6z"></path>
		<path class="st0" d="M136.2,126.4c2.2-2.2,4-3.9,6.4-4.7c2.1-0.8,3.1,0,2.8,2.2c-0.1,0.9-0.3,1.8-0.5,2.7c-0.1,1.1-0.7,1.8-1.8,2    c-1.5,0.3-2.9,1-4.1,1.9c-1.9,1.4-3.3,3-3.5,5.6c-0.1,2.6-0.8,5.1-1.1,7.6c-0.2,1.7-1,2.7-2.9,2.4c-0.1,0-0.1,0-0.2,0    c-4.4,0-4.5-0.2-3.8-4.5c1-5.7,1.9-11.5,2.7-17.3c0.4-2.6,0.8-2.9,3.8-2.7c2.2,0.1,2,1.6,2,3.1    C136.2,125.1,136.2,125.5,136.2,126.4z"></path>
		<path class="st0" d="M249.9,139.1c-4.9,0-9.9,0-14.8,0c-1.2,0-2.3-0.1-3.5-0.4c0-1.9,0.4-3.7,1.2-5.4c1.2-2.9,3.4-4.4,6.6-4.6    c5.7-0.3,5.7-0.3,4.7-6c0-0.1,0-0.1,0-0.2c1.9,0.1,3.9,0.6,5.8,0.4C249.9,128.3,249.9,133.7,249.9,139.1z"></path>
		<path class="st0" d="M41.5,146.1c-3.5,0-3.7-0.2-3.2-3.7c1-6.2,2-12.4,2.9-18.6c0.2-1.5,0.9-2.1,2.5-2.2c4.8-0.1,4.9,0,4.2,4.6    c-0.9,5.5-1.7,11.1-2.6,16.6C44.8,146,44.8,146.1,41.5,146.1z"></path>
		<path class="st0" d="M199.6,104.4c-0.2-1.4,1-1.6,1.9-2.1c0.8-0.5,1.5-0.9,0.3-1.8c-0.8-0.6-0.7-1.5-0.3-2.2c0.3-0.6,1-1,1.7-0.8    c0.9,0.3,1.4,0.9,1.3,1.9c-0.1,1.6,0.8,1.2,1.7,0.9c7.1-2.4,14.2-2.3,21.3,0.2c0.6,0.2,1.7,0.7,1.3-0.8c-0.3-1.2,0.3-1.8,1.3-2.2    c0.7-0.3,1.2,0.1,1.6,0.6c0.6,0.9,0.5,1.8-0.4,2.6c-0.3,0.2-0.5,0.4-0.8,0.7c0.6,1.4,3,0.9,2.7,3c-8.9,0-17.9,0.1-26.8,0.1    C204.1,104.6,201.9,104.5,199.6,104.4z"></path>
		<path class="st0" d="M45.4,119.7c-2.3,0-3.5-1.1-3.4-3.2c0.1-2.5,1.9-4.2,4.7-4.2c2.3,0,3.4,1.1,3.4,3.3    C50,118.1,48.3,119.7,45.4,119.7z"></path>
		<path class="st0" d="M241.6,104.5c0.2-2.1-0.5-4.2,0.4-6.2c1,0.7,2,1.4,3,2c1.4,1,2.8,2,4.2,3c0.3,0.2,0.8,0.4,0.5,1    c-0.2,0.4-0.6,0.3-0.9,0.3C246.4,104.6,244,104.5,241.6,104.5z"></path>
		<path class="st0" d="M191.2,98.7c0.9,1.9,0.2,3.9,0.4,5.8c-2.3,0-4.5,0.1-6.8,0.1c-0.4,0-0.9,0.1-1.1-0.4    c-0.2-0.6,0.3-0.8,0.7-1.1c1.3-1.1,3.1-1.5,3.9-3.2C189.5,100,190.2,99,191.2,98.7z"></path>
		<path class="st0" d="M191.2,98.7c-1,0.3-1.6,1.4-2.8,1.3c0-1.1,0-2.2,0-3.4C189.6,96.9,191.3,96.6,191.2,98.7z"></path>
		<path class="st0" d="M245,100.3c-1-0.7-2-1.4-3-2c0.4-1.7,1.8-1.5,3-1.7C245,97.8,245,99.1,245,100.3z"></path>
		<path class="st0" d="M205.4,117.4c0.7,0.5,1.4,1,2.1,1.5c0.1,0.5,0.4,0.6,0.8,0.6c0,0,0,0,0,0c0.1,0.4,0.5,0.5,0.9,0.4    c0,0,0,0,0,0c-0.1,0.8,0.6,1.1,1.1,1.3c4.9,2.4,9.7,2.3,14.4-0.4c0.5-0.3,1.2-0.5,1.1-1.4c0,0,0,0,0,0c0.4,0.1,0.7,0,0.8-0.5    c0,0,0,0.1,0,0.1c0.3,0,0.5-0.2,0.5-0.5c0.3-0.3,0.6-0.7,1.1-0.8c0.2,2.1-1.7,2.7-2.8,3.9c-5.6,3.9-11.1,4-16.7,0    C207.5,120.3,205.5,119.6,205.4,117.4z"></path>
		<path class="st0" d="M204.6,116.6c0.1,0.1,0.3,0.3,0.4,0.4C204.9,116.8,204.7,116.7,204.6,116.6z"></path>
		<path class="st0" d="M228.2,117.8c0-0.3,0.1-0.5,0.4-0.4C228.5,117.5,228.4,117.6,228.2,117.8z"></path>
		<path class="st0" d="M228.6,117.3c0-0.1,0-0.2,0.1-0.3c0.1,0.1,0.1,0.2,0.2,0.3C228.8,117.3,228.7,117.3,228.6,117.3z"></path>
		<path class="st0" d="M205,117c0.1,0.1,0.3,0.3,0.4,0.4C205.3,117.3,205.1,117.1,205,117z"></path>
		<path class="st0" d="M225.7,119.4c0.2,0.8-0.6,1.1-1.1,1.4c-4.7,2.7-9.6,2.8-14.4,0.4c-0.5-0.2-1.2-0.5-1.1-1.3    C214.7,122,220.3,121.9,225.7,119.4z"></path>
		<path class="st0" d="M208.3,119.5c-0.4,0-0.8-0.1-0.8-0.6C207.8,119,208.2,119.1,208.3,119.5z"></path>
		<path class="st0" d="M226.5,119c-0.1,0.5-0.4,0.6-0.8,0.5C225.9,119.1,226.2,119,226.5,119z"></path>
		<path class="st0" d="M209.2,119.9c-0.4,0.1-0.7,0-0.9-0.4C208.7,119.5,209,119.5,209.2,119.9z"></path>
		<path class="st0" d="M227,118.5c-0.1,0.3-0.2,0.5-0.5,0.5C226.7,118.9,226.9,118.7,227,118.5z"></path>
	</g>
</g>
</svg>
