<?xml version="1.0" encoding="UTF-8"?>
<!-- Generator: Adobe Illustrator 22.1.0, SVG Export Plug-In . SVG Version: 6.00 Build 0)  -->
<svg xmlns="http://www.w3.org/2000/svg" xmlns:xlink="http://www.w3.org/1999/xlink" version="1.1" id="Layer_1" x="0px" y="0px" viewBox="0 0 250 250" style="enable-background:new 0 0 250 250;" xml:space="preserve">
<style type="text/css">
	.st0{fill:#484A54;}
	.st1{fill:#F47E20;}
	.st2{fill:#F6E32B;}
	.st3{fill:#387BBE;}
	.st4{fill:#F7D919;}
	.st5{fill:#F8CF14;}
	.st6{fill:#F5B51B;}
	.st7{fill:#FFFFFF;}
	.st8{fill:#FEFEFE;}
	.st9{fill:#9E242E;}
	.st10{fill:#FF912E;}
	.st11{fill:#F41CB2;}
	.st12{fill:#F25511;}
	.st13{fill:#1B9DD7;}
	.st14{fill:#97C43E;}
</style>
<g>
	<g>
		<path class="st0" d="M234.8,118.6c3.7-1.3,7.9-2.1,11.7-0.8c2.2,0.8,3.4,3.1,3.4,5.3c0,4.6,0.1,9.2-0.1,13.8c-1.3,0-2.6,0-4,0    c-0.2-0.7-0.3-1.5-0.5-2.2c-2.5,2-5.8,3.4-8.9,2.2c-3.6-1.4-4-6.8-1.3-9.3c2.7-2.5,6.6-2.5,10.1-3.3c-0.2-1.2-0.4-2.7-1.8-3    c-2.7-0.8-5.5,0.4-8.1,1.2C235.1,121.2,235,119.9,234.8,118.6 M239.2,129.2c-1.3,1-1.3,3.5,0.3,4.2c2,0.8,4-0.6,5.6-1.7    c0-1.5,0-3,0-4.5C243.1,127.6,240.8,127.8,239.2,129.2"></path>
		<path class="st0" d="M131.4,109.4c2.2-0.1,4.5-0.2,6.7-0.1c2.6,6.7,4.3,13.8,7.2,20.4c2.4-6.8,4.5-13.6,6.8-20.3    c2.2-0.1,4.4-0.1,6.6,0c0.6,9.2,1.6,18.4,2,27.5c-1.7,0-3.4,0-5.1,0c-0.6-6.6-0.9-13.1-1.5-19.7c-2.6,6.4-4.5,13.2-6.9,19.7    c-1.6,0.1-3.2,0.1-4.8,0c-2.3-6.5-4.2-13.2-6.9-19.6c-0.6,6.5-0.8,13.1-1.4,19.6c-1.5,0-3.1,0-4.6,0    C129.9,127.7,130.8,118.6,131.4,109.4"></path>
		<path class="st0" d="M207.6,111.5c1.5-0.3,3.1-0.5,4.7-0.7c0.1,2.2,0.1,4.4,0,6.7c1.3,0,2.6,0.1,3.9,0.1c0.2,1.3,0.5,2.5,0.6,3.8    c-1.5,0.1-3,0.1-4.5,0.2c0,3.4-0.2,6.7,0.1,10.1c0.5,1.6,2.6,1.2,3.9,1.5c0.3,1.3,0.4,2.6,0.6,3.9c-2.5,0.2-5.2,0.6-7.4-0.8    c-1.4-0.9-1.9-2.7-2-4.4c-0.2-3.4,0-6.8-0.1-10.2c-0.9-0.1-1.8-0.2-2.7-0.3c0-1.2,0.1-2.5,0.1-3.7c0.9-0.1,1.7-0.2,2.6-0.2    C207.5,115.4,207.5,113.4,207.6,111.5"></path>
		<path class="st0" d="M163.7,118c1.7-0.3,3.3-0.5,5-0.6c1.5,4.4,2.9,8.9,4.4,13.3c1.6-4.3,2.8-8.7,4.2-13.1    c1.6-0.1,3.2-0.1,4.8-0.1c-1.8,5.9-4.1,11.6-6.1,17.4c-1,2.7-1.7,5.7-3.9,7.7c-1.8,1.6-4.4,1.7-6.6,1.3c-0.2-1.3-0.4-2.6-0.6-3.8    c1.1,0,2.2,0.1,3.3-0.1c1.5-0.5,2.8-2.3,2.1-3.9C168.1,130,165.7,124,163.7,118"></path>
		<path class="st0" d="M185.2,117.5c1.3,0,2.7,0,4,0.1c0.2,0.8,0.4,1.7,0.5,2.5c2.1-1.7,4.6-3.4,7.4-2.9c2.5,0.1,4.4,2.3,4.5,4.7    c0.1,5,0.1,9.9,0,14.9c-1.5,0-3.1,0-4.6,0.1c-0.4-4.5,0.1-9.1-0.2-13.6c-0.2-1.9-2.5-2.3-4-1.6c-1.2,0.6-2.9,1.5-2.8,3.1    c-0.1,4,0,8,0,12c-1.6,0-3.2,0-4.9,0C185.2,130.4,185.2,124,185.2,117.5"></path>
		<path class="st0" d="M220.6,117.5c1.4,0,2.7,0,4.1,0c0.2,1.1,0.4,2.2,0.5,3.4c1.7-1.8,3.6-3.6,6.2-3.8c0.4,1.5,0.6,3.1,0.7,4.7    c-2.6,0.6-5.5,1.6-6.6,4.2c-0.2,3.6,0,7.2-0.1,10.9c-1.6,0-3.2,0-4.8,0C220.6,130.4,220.6,124,220.6,117.5"></path>
		<path class="st0" d="M24.9,91.5c2.3-2.8,4.9-5.8,8.5-7c4-1.1,7.5,2.1,10,4.8c6.6,7.6,11.5,16.6,16,25.6c2.4-5.5,5.5-10.7,8.6-15.7    c3-4.6,6.1-9.3,10.4-12.8c2-1.5,4.8-3,7.3-1.7c3.5,1.9,6.2,5,8.7,8c5.3,6.8,9.5,14.5,13.2,22.2c4.7,10,8.8,20.4,10.5,31.4    c0.5,5.1,1,10.8-2.1,15.2c-2.4,3.5-6.9,4.7-10.9,4c-3.5-1.2-6.5-3.5-8.8-6.4c-5.4-6.7-8.6-14.7-11.6-22.7c-0.4-1.4-1-2.8-1.4-4.1    c-0.3,1.4-0.7,2.8-1.2,4.2c-3,8.1-6.3,16.3-11.8,23c-2.2,2.7-5.2,4.8-8.5,6c-4.8,1-9.4-1.5-12.5-5c-6.1-6.6-9.4-15.1-12.5-23.4    c-0.6-1.7-1.2-3.4-1.6-5.2c-0.5,1.8-1.1,3.5-1.7,5.2c-2.8,7.6-6,15.3-11.1,21.8c-2.8,3.3-6.4,6.5-10.9,6.8    c-4.2,0.4-8.2-2.3-9.8-6.1c-2.3-5.3-1.6-11.2-0.6-16.7c2.2-10.5,6.2-20.5,10.9-30.1C15.5,105.3,19.7,98,24.9,91.5 M27.2,93.8    c-5.1,6.6-9.2,13.9-12.9,21.3c-4.6,9.6-8.7,19.7-10.5,30.2c-0.6,2.9-0.6,6-0.3,8.9c0.4,2.8,1.5,5.8,4,7.2c2.5,1.4,5.6,0.9,7.9-0.7    c4-2.8,6.7-7.1,9-11.3c4.9-9.4,8.2-19.7,10.6-30c2.6,10.6,5.9,21.1,11.1,30.7c2.1,3.6,4.2,7.3,7.6,9.7c1.7,1.5,3.9,2.6,6.3,2.3    c2.6-0.3,4.8-1.9,6.6-3.7c3.1-3.2,5.4-7.1,7.4-11.1c4.3-8.7,7.2-18.1,9.5-27.5c2.9,11.4,6.4,22.8,12.6,33c2.3,3.5,5,7.2,9,8.9    c2.8,1.2,6.4,0.1,8.1-2.5c2-3.2,2.1-7.1,1.8-10.7c-0.4-5.8-2.1-11.5-4-17c-3.7-10.7-8.6-20.9-14.6-30.5c-2.8-4.3-5.6-8.6-9.5-12    c-1.4-1.2-3.4-2.4-5.1-1.2c-3.3,2-5.6,5.3-8,8.3c-5.7,8.1-10.3,16.9-14.2,25.9c-0.1,0.1-0.4,0.4-0.5,0.5c-0.3-1-0.7-2-1.1-3    c-3.9-8.5-8.3-16.9-13.9-24.4c-1.9-2.5-3.9-5-6.4-6.9c-1.1-0.8-2.6-1.5-3.9-0.8C31.1,89.1,29.1,91.6,27.2,93.8"></path>
		<path class="st0" d="M32,92.7c1.3-0.8,2.8-1.7,4.4-1c2.7,1.2,4.7,3.5,6.5,5.7c6.4,7.9,11.1,16.9,16.2,25.6c-3.2,9.1-7,18.2-7.2,28    c-0.2,3.1,0.7,6.2,1.8,9.1c-3.4-2.5-5.6-6.2-7.6-9.7c-5.2-9.6-8.5-20.1-11.1-30.7C33.2,110.8,31.4,101.7,32,92.7"></path>
		<path class="st0" d="M80.3,92.8c1.2-0.7,2.5-1.7,3.9-1.3c1.8,0.6,3.3,2,4.6,3.3c3.3,3.5,6.1,7.5,8.7,11.6    c5.9,9.5,10.8,19.7,14.4,30.3c1.4,3.9,2.4,7.9,3.1,11.9c0.3,3.6,0.1,7.5-1.8,10.7c-1.6,2.7-5.2,3.7-8.1,2.5c-4-1.6-6.7-5.3-9-8.9    c-6.1-10.1-9.7-21.5-12.6-33C81.5,111.2,79.7,102,80.3,92.8"></path>
		<path class="st0" d="M20.8,106.6c3.2-5,6.6-10,11.2-13.9c-0.6,9.1,1.1,18.1,3,26.9c-2.4,10.3-5.7,20.5-10.6,30    c-2.3,4.2-5,8.5-9,11.3c-2.2,1.6-5.4,2.2-7.9,0.7c-2.6-1.4-3.7-4.5-4-7.2c-0.3-3-0.3-6,0.3-8.9C7.6,131.7,13.3,118.6,20.8,106.6"></path>
		<path class="st0" d="M72.5,101.5c2.3-3.2,4.7-6.3,7.8-8.7c-0.6,9.2,1.2,18.4,3.2,27.3c-2.3,9.4-5.3,18.7-9.5,27.5    c-2,4-4.3,7.9-7.4,11.1c-1.8,1.8-4,3.4-6.6,3.7c-2.3,0.3-4.6-0.8-6.3-2.3c-1.2-2.9-2-6-1.8-9.1c0.2-9.8,4-18.9,7.2-28    c0.1-0.1,0.4-0.4,0.5-0.5c0.7-0.9,1.4-1.8,1.9-2.8C64.8,113.4,68.4,107.3,72.5,101.5"></path>
	</g>
</g>
</svg>
